<svg xmlns="http://www.w3.org/2000/svg" xmlns:xlink="http://www.w3.org/1999/xlink" contentStyleType="text/css" data-diagram-type="CLASS" height="942px" preserveAspectRatio="none" style="width:3029px;height:942px;background:#FFFFFF;" version="1.1" viewBox="0 0 3029 942" width="3029px" zoomAndPan="magnify"><title>Open Note App</title><defs/><g><text fill="#000000" font-family="sans-serif" font-size="14" font-weight="bold" lengthAdjust="spacing" textLength="119.5332" x="1447.9906" y="22.9951">Open Note App</text><!--class User--><g id="elem_User"><rect codeLine="6" fill="#F1F1F1" height="145.7813" id="User" rx="2.5" ry="2.5" style="stroke:#181818;stroke-width:0.5;" width="383.916" x="7" y="44.2969"/><ellipse cx="178.7529" cy="60.2969" fill="#ADD1B2" rx="11" ry="11" style="stroke:#181818;stroke-width:1;"/><path d="M181.7217,65.9375 Q181.1436,66.2344 180.5029,66.375 Q179.8623,66.5313 179.1592,66.5313 Q176.6592,66.5313 175.3311,64.8906 Q174.0186,63.2344 174.0186,60.1094 Q174.0186,56.9844 175.3311,55.3281 Q176.6592,53.6719 179.1592,53.6719 Q179.8623,53.6719 180.5029,53.8281 Q181.1592,53.9844 181.7217,54.2813 L181.7217,57 Q181.0967,56.4219 180.5029,56.1563 Q179.9092,55.875 179.2842,55.875 Q177.9404,55.875 177.2529,56.9531 Q176.5654,58.0156 176.5654,60.1094 Q176.5654,62.2031 177.2529,63.2813 Q177.9404,64.3438 179.2842,64.3438 Q179.9092,64.3438 180.5029,64.0781 Q181.0967,63.7969 181.7217,63.2188 L181.7217,65.9375 Z " fill="#000000"/><text fill="#000000" font-family="sans-serif" font-size="14" lengthAdjust="spacing" textLength="31.9102" x="199.2529" y="65.1436">User</text><line style="stroke:#181818;stroke-width:0.5;" x1="8" x2="389.916" y1="76.2969" y2="76.2969"/><rect fill="none" height="6" style="stroke:#C82930;stroke-width:1;" width="6" x="15" y="86.9453"/><text fill="#000000" font-family="sans-serif" font-size="14" lengthAdjust="spacing" textLength="121.1875" x="27" y="93.292">username: String</text><rect fill="none" height="6" style="stroke:#C82930;stroke-width:1;" width="6" x="15" y="103.2422"/><text fill="#000000" font-family="sans-serif" font-size="14" lengthAdjust="spacing" textLength="117.6602" x="27" y="109.5889">password: String</text><line style="stroke:#181818;stroke-width:0.5;" x1="8" x2="389.916" y1="116.8906" y2="116.8906"/><ellipse cx="18" cy="130.5391" fill="#84BE84" rx="3" ry="3" style="stroke:#038048;stroke-width:1;"/><text fill="#000000" font-family="sans-serif" font-size="14" lengthAdjust="spacing" textLength="156.4746" x="27" y="133.8857">getUsername(): String</text><ellipse cx="18" cy="146.8359" fill="#84BE84" rx="3" ry="3" style="stroke:#038048;stroke-width:1;"/><text fill="#000000" font-family="sans-serif" font-size="14" lengthAdjust="spacing" textLength="220.4043" x="27" y="150.1826">setUsername(String username)</text><ellipse cx="18" cy="163.1328" fill="#84BE84" rx="3" ry="3" style="stroke:#038048;stroke-width:1;"/><text fill="#000000" font-family="sans-serif" font-size="14" lengthAdjust="spacing" textLength="211.5313" x="27" y="166.4795">setPassword(String password)</text><ellipse cx="18" cy="179.4297" fill="#84BE84" rx="3" ry="3" style="stroke:#038048;stroke-width:1;"/><text fill="#000000" font-family="sans-serif" font-size="14" lengthAdjust="spacing" textLength="357.916" x="27" y="182.7764">login(username: String, password: String): boolean</text></g><!--class NoteComponent--><g id="elem_NoteComponent"><rect codeLine="15" fill="#F1F1F1" height="113.1875" id="NoteComponent" rx="2.5" ry="2.5" style="stroke:#181818;stroke-width:0.5;" width="288.4658" x="425.73" y="60.5969"/><ellipse cx="508.5029" cy="76.5969" fill="#B4A7E5" rx="11" ry="11" style="stroke:#181818;stroke-width:1;"/><path d="M504.4248,72.3625 L504.4248,70.2063 L511.8154,70.2063 L511.8154,72.3625 L509.3467,72.3625 L509.3467,80.4406 L511.8154,80.4406 L511.8154,82.5969 L504.4248,82.5969 L504.4248,80.4406 L506.8936,80.4406 L506.8936,72.3625 L504.4248,72.3625 Z " fill="#000000"/><text fill="#000000" font-family="sans-serif" font-size="14" font-style="italic" lengthAdjust="spacing" textLength="114.4199" x="529.0029" y="81.4436">NoteComponent</text><line style="stroke:#181818;stroke-width:0.5;" x1="426.73" x2="713.1958" y1="92.5969" y2="92.5969"/><line style="stroke:#181818;stroke-width:0.5;" x1="426.73" x2="713.1958" y1="100.5969" y2="100.5969"/><ellipse cx="436.73" cy="114.2453" fill="#84BE84" rx="3" ry="3" style="stroke:#038048;stroke-width:1;"/><text fill="#000000" font-family="sans-serif" font-size="14" lengthAdjust="spacing" textLength="235.3477" x="445.73" y="117.592">add(NoteComponent component)</text><ellipse cx="436.73" cy="130.5422" fill="#84BE84" rx="3" ry="3" style="stroke:#038048;stroke-width:1;"/><text fill="#000000" font-family="sans-serif" font-size="14" lengthAdjust="spacing" textLength="262.4658" x="445.73" y="133.8889">remove(NoteComponent component)</text><ellipse cx="436.73" cy="146.8391" fill="#84BE84" rx="3" ry="3" style="stroke:#038048;stroke-width:1;"/><text fill="#000000" font-family="sans-serif" font-size="14" lengthAdjust="spacing" textLength="254.0645" x="445.73" y="150.1857">getChild(int index): NoteComponent</text><ellipse cx="436.73" cy="163.1359" fill="#84BE84" rx="3" ry="3" style="stroke:#038048;stroke-width:1;"/><text fill="#000000" font-family="sans-serif" font-size="14" lengthAdjust="spacing" textLength="60.6348" x="445.73" y="166.4826">display()</text></g><!--class Note--><g id="elem_Note"><rect codeLine="23" fill="#F1F1F1" height="227.2656" id="Note" rx="2.5" ry="2.5" style="stroke:#181818;stroke-width:0.5;" width="288.4658" x="78.73" y="267.0769"/><ellipse cx="202.1426" cy="283.0769" fill="#A9DCDF" rx="11" ry="11" style="stroke:#181818;stroke-width:1;"/><path d="M202.252,278.4206 L201.0957,283.4988 L203.4238,283.4988 L202.252,278.4206 Z M200.7676,276.1863 L203.752,276.1863 L207.1113,288.5769 L204.6582,288.5769 L203.8926,285.5144 L200.6113,285.5144 L199.8613,288.5769 L197.4238,288.5769 L200.7676,276.1863 Z " fill="#000000"/><text fill="#000000" font-family="sans-serif" font-size="14" font-style="italic" lengthAdjust="spacing" textLength="33.1406" x="222.6426" y="287.9236">Note</text><line style="stroke:#181818;stroke-width:0.5;" x1="79.73" x2="366.1958" y1="299.0769" y2="299.0769"/><rect fill="none" height="6" style="stroke:#C82930;stroke-width:1;" width="6" x="86.73" y="309.7253"/><text fill="#000000" font-family="sans-serif" font-size="14" lengthAdjust="spacing" textLength="78.3193" x="98.73" y="316.072">title: String</text><rect fill="none" height="6" style="stroke:#C82930;stroke-width:1;" width="6" x="86.73" y="326.0222"/><text fill="#000000" font-family="sans-serif" font-size="14" lengthAdjust="spacing" textLength="104.5488" x="98.73" y="332.3689">content: String</text><rect fill="none" height="6" style="stroke:#C82930;stroke-width:1;" width="6" x="86.73" y="342.3191"/><text fill="#000000" font-family="sans-serif" font-size="14" lengthAdjust="spacing" textLength="173.8379" x="98.73" y="348.6657">pageLayout: PageLayout</text><line style="stroke:#181818;stroke-width:0.5;" x1="79.73" x2="366.1958" y1="355.9675" y2="355.9675"/><ellipse cx="89.73" cy="369.6159" fill="#84BE84" rx="3" ry="3" style="stroke:#038048;stroke-width:1;"/><text fill="#000000" font-family="sans-serif" font-size="14" lengthAdjust="spacing" textLength="235.3477" x="98.73" y="372.9626">add(NoteComponent component)</text><ellipse cx="89.73" cy="385.9128" fill="#84BE84" rx="3" ry="3" style="stroke:#038048;stroke-width:1;"/><text fill="#000000" font-family="sans-serif" font-size="14" lengthAdjust="spacing" textLength="262.4658" x="98.73" y="389.2595">remove(NoteComponent component)</text><ellipse cx="89.73" cy="402.2097" fill="#84BE84" rx="3" ry="3" style="stroke:#038048;stroke-width:1;"/><text fill="#000000" font-family="sans-serif" font-size="14" lengthAdjust="spacing" textLength="254.0645" x="98.73" y="405.5564">getChild(int index): NoteComponent</text><ellipse cx="89.73" cy="418.5066" fill="#84BE84" rx="3" ry="3" style="stroke:#038048;stroke-width:1;"/><text fill="#000000" font-family="sans-serif" font-size="14" lengthAdjust="spacing" textLength="60.6348" x="98.73" y="421.8532">display()</text><ellipse cx="89.73" cy="434.8034" fill="#84BE84" rx="3" ry="3" style="stroke:#038048;stroke-width:1;"/><text fill="#000000" font-family="sans-serif" font-size="14" lengthAdjust="spacing" textLength="187.8311" x="98.73" y="438.1501">setContent(String content)</text><ellipse cx="89.73" cy="451.1003" fill="#84BE84" rx="3" ry="3" style="stroke:#038048;stroke-width:1;"/><text fill="#000000" font-family="sans-serif" font-size="14" lengthAdjust="spacing" textLength="140.54" x="98.73" y="454.447">getContent(): String</text><ellipse cx="89.73" cy="467.3972" fill="#84BE84" rx="3" ry="3" style="stroke:#038048;stroke-width:1;"/><text fill="#000000" font-family="sans-serif" font-size="14" lengthAdjust="spacing" textLength="244.6787" x="98.73" y="470.7439">setPageLayout(PageLayout layout)</text><ellipse cx="89.73" cy="483.6941" fill="#84BE84" rx="3" ry="3" style="stroke:#038048;stroke-width:1;"/><text fill="#000000" font-family="sans-serif" font-size="14" lengthAdjust="spacing" textLength="207.3066" x="98.73" y="487.0407">getPageLayout(): PageLayout</text></g><!--class PageLayout--><g id="elem_PageLayout"><rect codeLine="38" fill="#F1F1F1" height="64.2969" id="PageLayout" rx="2.5" ry="2.5" style="stroke:#181818;stroke-width:0.5;" width="192.1748" x="963.87" y="85.0369"/><ellipse cx="1014.6508" cy="101.0369" fill="#B4A7E5" rx="11" ry="11" style="stroke:#181818;stroke-width:1;"/><path d="M1010.5726,96.8025 L1010.5726,94.6463 L1017.9633,94.6463 L1017.9633,96.8025 L1015.4945,96.8025 L1015.4945,104.8806 L1017.9633,104.8806 L1017.9633,107.0369 L1010.5726,107.0369 L1010.5726,104.8806 L1013.0414,104.8806 L1013.0414,96.8025 L1010.5726,96.8025 Z " fill="#000000"/><text fill="#000000" font-family="sans-serif" font-size="14" font-style="italic" lengthAdjust="spacing" textLength="82.1133" x="1035.1508" y="105.8836">PageLayout</text><line style="stroke:#181818;stroke-width:0.5;" x1="964.87" x2="1155.0448" y1="117.0369" y2="117.0369"/><line style="stroke:#181818;stroke-width:0.5;" x1="964.87" x2="1155.0448" y1="125.0369" y2="125.0369"/><ellipse cx="974.87" cy="138.6853" fill="#84BE84" rx="3" ry="3" style="stroke:#038048;stroke-width:1;"/><text fill="#000000" font-family="sans-serif" font-size="14" lengthAdjust="spacing" textLength="166.1748" x="983.87" y="142.032">applyLayout(Note note)</text></g><!--class LinedNote--><g id="elem_LinedNote"><rect codeLine="43" fill="#F1F1F1" height="64.2969" id="LinedNote" rx="2.5" ry="2.5" style="stroke:#181818;stroke-width:0.5;" width="192.1748" x="736.87" y="348.5669"/><ellipse cx="793.1058" cy="364.5669" fill="#ADD1B2" rx="11" ry="11" style="stroke:#181818;stroke-width:1;"/><path d="M796.0746,370.2075 Q795.4965,370.5044 794.8558,370.645 Q794.2152,370.8013 793.5121,370.8013 Q791.0121,370.8013 789.684,369.1606 Q788.3715,367.5044 788.3715,364.3794 Q788.3715,361.2544 789.684,359.5981 Q791.0121,357.9419 793.5121,357.9419 Q794.2152,357.9419 794.8558,358.0981 Q795.5121,358.2544 796.0746,358.5513 L796.0746,361.27 Q795.4496,360.6919 794.8558,360.4263 Q794.2621,360.145 793.6371,360.145 Q792.2933,360.145 791.6058,361.2231 Q790.9183,362.2856 790.9183,364.3794 Q790.9183,366.4731 791.6058,367.5513 Q792.2933,368.6138 793.6371,368.6138 Q794.2621,368.6138 794.8558,368.3481 Q795.4496,368.0669 796.0746,367.4888 L796.0746,370.2075 Z " fill="#000000"/><text fill="#000000" font-family="sans-serif" font-size="14" lengthAdjust="spacing" textLength="71.2031" x="813.6058" y="369.4136">LinedNote</text><line style="stroke:#181818;stroke-width:0.5;" x1="737.87" x2="928.0448" y1="380.5669" y2="380.5669"/><line style="stroke:#181818;stroke-width:0.5;" x1="737.87" x2="928.0448" y1="388.5669" y2="388.5669"/><ellipse cx="747.87" cy="402.2153" fill="#84BE84" rx="3" ry="3" style="stroke:#038048;stroke-width:1;"/><text fill="#000000" font-family="sans-serif" font-size="14" lengthAdjust="spacing" textLength="166.1748" x="756.87" y="405.562">applyLayout(Note note)</text></g><!--class GridNote--><g id="elem_GridNote"><rect codeLine="47" fill="#F1F1F1" height="64.2969" id="GridNote" rx="2.5" ry="2.5" style="stroke:#181818;stroke-width:0.5;" width="192.1748" x="963.87" y="348.5669"/><ellipse cx="1024.4467" cy="364.5669" fill="#ADD1B2" rx="11" ry="11" style="stroke:#181818;stroke-width:1;"/><path d="M1027.4154,370.2075 Q1026.8373,370.5044 1026.1967,370.645 Q1025.556,370.8013 1024.8529,370.8013 Q1022.3529,370.8013 1021.0248,369.1606 Q1019.7123,367.5044 1019.7123,364.3794 Q1019.7123,361.2544 1021.0248,359.5981 Q1022.3529,357.9419 1024.8529,357.9419 Q1025.556,357.9419 1026.1967,358.0981 Q1026.8529,358.2544 1027.4154,358.5513 L1027.4154,361.27 Q1026.7904,360.6919 1026.1967,360.4263 Q1025.6029,360.145 1024.9779,360.145 Q1023.6342,360.145 1022.9467,361.2231 Q1022.2592,362.2856 1022.2592,364.3794 Q1022.2592,366.4731 1022.9467,367.5513 Q1023.6342,368.6138 1024.9779,368.6138 Q1025.6029,368.6138 1026.1967,368.3481 Q1026.7904,368.0669 1027.4154,367.4888 L1027.4154,370.2075 Z " fill="#000000"/><text fill="#000000" font-family="sans-serif" font-size="14" lengthAdjust="spacing" textLength="62.5215" x="1044.9467" y="369.4136">GridNote</text><line style="stroke:#181818;stroke-width:0.5;" x1="964.87" x2="1155.0448" y1="380.5669" y2="380.5669"/><line style="stroke:#181818;stroke-width:0.5;" x1="964.87" x2="1155.0448" y1="388.5669" y2="388.5669"/><ellipse cx="974.87" cy="402.2153" fill="#84BE84" rx="3" ry="3" style="stroke:#038048;stroke-width:1;"/><text fill="#000000" font-family="sans-serif" font-size="14" lengthAdjust="spacing" textLength="166.1748" x="983.87" y="405.562">applyLayout(Note note)</text></g><!--class BlankPageNote--><g id="elem_BlankPageNote"><rect codeLine="51" fill="#F1F1F1" height="64.2969" id="BlankPageNote" rx="2.5" ry="2.5" style="stroke:#181818;stroke-width:0.5;" width="192.1748" x="1190.87" y="348.5669"/><ellipse cx="1229.9265" cy="364.5669" fill="#ADD1B2" rx="11" ry="11" style="stroke:#181818;stroke-width:1;"/><path d="M1232.8953,370.2075 Q1232.3172,370.5044 1231.6765,370.645 Q1231.0359,370.8013 1230.3328,370.8013 Q1227.8328,370.8013 1226.5047,369.1606 Q1225.1922,367.5044 1225.1922,364.3794 Q1225.1922,361.2544 1226.5047,359.5981 Q1227.8328,357.9419 1230.3328,357.9419 Q1231.0359,357.9419 1231.6765,358.0981 Q1232.3328,358.2544 1232.8953,358.5513 L1232.8953,361.27 Q1232.2703,360.6919 1231.6765,360.4263 Q1231.0828,360.145 1230.4578,360.145 Q1229.114,360.145 1228.4265,361.2231 Q1227.739,362.2856 1227.739,364.3794 Q1227.739,366.4731 1228.4265,367.5513 Q1229.114,368.6138 1230.4578,368.6138 Q1231.0828,368.6138 1231.6765,368.3481 Q1232.2703,368.0669 1232.8953,367.4888 L1232.8953,370.2075 Z " fill="#000000"/><text fill="#000000" font-family="sans-serif" font-size="14" lengthAdjust="spacing" textLength="106.7158" x="1249.2724" y="369.4136">BlankPageNote</text><line style="stroke:#181818;stroke-width:0.5;" x1="1191.87" x2="1382.0448" y1="380.5669" y2="380.5669"/><line style="stroke:#181818;stroke-width:0.5;" x1="1191.87" x2="1382.0448" y1="388.5669" y2="388.5669"/><ellipse cx="1201.87" cy="402.2153" fill="#84BE84" rx="3" ry="3" style="stroke:#038048;stroke-width:1;"/><text fill="#000000" font-family="sans-serif" font-size="14" lengthAdjust="spacing" textLength="166.1748" x="1210.87" y="405.562">applyLayout(Note note)</text></g><!--class Subject--><g id="elem_Subject"><rect codeLine="56" fill="#F1F1F1" height="145.7813" id="Subject" rx="2.5" ry="2.5" style="stroke:#181818;stroke-width:0.5;" width="288.4658" x="413.73" y="307.8269"/><ellipse cx="527.5449" cy="323.8269" fill="#ADD1B2" rx="11" ry="11" style="stroke:#181818;stroke-width:1;"/><path d="M530.5137,329.4675 Q529.9356,329.7644 529.2949,329.905 Q528.6543,330.0613 527.9512,330.0613 Q525.4512,330.0613 524.1231,328.4206 Q522.8106,326.7644 522.8106,323.6394 Q522.8106,320.5144 524.1231,318.8581 Q525.4512,317.2019 527.9512,317.2019 Q528.6543,317.2019 529.2949,317.3581 Q529.9512,317.5144 530.5137,317.8113 L530.5137,320.53 Q529.8887,319.9519 529.2949,319.6863 Q528.7012,319.405 528.0762,319.405 Q526.7324,319.405 526.0449,320.4831 Q525.3574,321.5456 525.3574,323.6394 Q525.3574,325.7331 526.0449,326.8113 Q526.7324,327.8738 528.0762,327.8738 Q528.7012,327.8738 529.2949,327.6081 Q529.8887,327.3269 530.5137,326.7488 L530.5137,329.4675 Z " fill="#000000"/><text fill="#000000" font-family="sans-serif" font-size="14" lengthAdjust="spacing" textLength="52.3359" x="548.0449" y="328.6736">Subject</text><line style="stroke:#181818;stroke-width:0.5;" x1="414.73" x2="701.1958" y1="339.8269" y2="339.8269"/><rect fill="none" height="6" style="stroke:#C82930;stroke-width:1;" width="6" x="421.73" y="350.4753"/><text fill="#000000" font-family="sans-serif" font-size="14" lengthAdjust="spacing" textLength="90.6514" x="433.73" y="356.822">name: String</text><rect fill="none" height="6" style="stroke:#C82930;stroke-width:1;" width="6" x="421.73" y="366.7722"/><text fill="#000000" font-family="sans-serif" font-size="14" lengthAdjust="spacing" textLength="227.999" x="433.73" y="373.1189">children: List&lt;NoteComponent&gt;</text><line style="stroke:#181818;stroke-width:0.5;" x1="414.73" x2="701.1958" y1="380.4206" y2="380.4206"/><ellipse cx="424.73" cy="394.0691" fill="#84BE84" rx="3" ry="3" style="stroke:#038048;stroke-width:1;"/><text fill="#000000" font-family="sans-serif" font-size="14" lengthAdjust="spacing" textLength="235.3477" x="433.73" y="397.4157">add(NoteComponent component)</text><ellipse cx="424.73" cy="410.3659" fill="#84BE84" rx="3" ry="3" style="stroke:#038048;stroke-width:1;"/><text fill="#000000" font-family="sans-serif" font-size="14" lengthAdjust="spacing" textLength="262.4658" x="433.73" y="413.7126">remove(NoteComponent component)</text><ellipse cx="424.73" cy="426.6628" fill="#84BE84" rx="3" ry="3" style="stroke:#038048;stroke-width:1;"/><text fill="#000000" font-family="sans-serif" font-size="14" lengthAdjust="spacing" textLength="254.0645" x="433.73" y="430.0095">getChild(int index): NoteComponent</text><ellipse cx="424.73" cy="442.9597" fill="#84BE84" rx="3" ry="3" style="stroke:#038048;stroke-width:1;"/><text fill="#000000" font-family="sans-serif" font-size="14" lengthAdjust="spacing" textLength="60.6348" x="433.73" y="446.3064">display()</text></g><!--class NoteFactory--><g id="elem_NoteFactory"><rect codeLine="65" fill="#F1F1F1" height="64.2969" id="NoteFactory" rx="2.5" ry="2.5" style="stroke:#181818;stroke-width:0.5;" width="157.1201" x="1610.4" y="85.0369"/><ellipse cx="1643.1996" cy="101.0369" fill="#A9DCDF" rx="11" ry="11" style="stroke:#181818;stroke-width:1;"/><path d="M1643.309,96.3806 L1642.1527,101.4588 L1644.4809,101.4588 L1643.309,96.3806 Z M1641.8246,94.1463 L1644.809,94.1463 L1648.1684,106.5369 L1645.7152,106.5369 L1644.9496,103.4744 L1641.6684,103.4744 L1640.9184,106.5369 L1638.4809,106.5369 L1641.8246,94.1463 Z " fill="#000000"/><text fill="#000000" font-family="sans-serif" font-size="14" font-style="italic" lengthAdjust="spacing" textLength="85.5654" x="1661.1551" y="105.8836">NoteFactory</text><line style="stroke:#181818;stroke-width:0.5;" x1="1611.4" x2="1766.5201" y1="117.0369" y2="117.0369"/><line style="stroke:#181818;stroke-width:0.5;" x1="1611.4" x2="1766.5201" y1="125.0369" y2="125.0369"/><ellipse cx="1621.4" cy="138.6853" fill="#84BE84" rx="3" ry="3" style="stroke:#038048;stroke-width:1;"/><text fill="#000000" font-family="sans-serif" font-size="14" lengthAdjust="spacing" textLength="131.1201" x="1630.4" y="142.032">createNote(): Note</text></g><!--class GridNoteFactory--><g id="elem_GridNoteFactory"><rect codeLine="70" fill="#F1F1F1" height="64.2969" id="GridNoteFactory" rx="2.5" ry="2.5" style="stroke:#181818;stroke-width:0.5;" width="157.1201" x="1418.4" y="348.5669"/><ellipse cx="1437.9782" cy="364.5669" fill="#ADD1B2" rx="11" ry="11" style="stroke:#181818;stroke-width:1;"/><path d="M1440.947,370.2075 Q1440.3688,370.5044 1439.7282,370.645 Q1439.0876,370.8013 1438.3845,370.8013 Q1435.8845,370.8013 1434.5563,369.1606 Q1433.2438,367.5044 1433.2438,364.3794 Q1433.2438,361.2544 1434.5563,359.5981 Q1435.8845,357.9419 1438.3845,357.9419 Q1439.0876,357.9419 1439.7282,358.0981 Q1440.3845,358.2544 1440.947,358.5513 L1440.947,361.27 Q1440.322,360.6919 1439.7282,360.4263 Q1439.1345,360.145 1438.5095,360.145 Q1437.1657,360.145 1436.4782,361.2231 Q1435.7907,362.2856 1435.7907,364.3794 Q1435.7907,366.4731 1436.4782,367.5513 Q1437.1657,368.6138 1438.5095,368.6138 Q1439.1345,368.6138 1439.7282,368.3481 Q1440.322,368.0669 1440.947,367.4888 L1440.947,370.2075 Z " fill="#000000"/><text fill="#000000" font-family="sans-serif" font-size="14" lengthAdjust="spacing" textLength="114.9463" x="1452.9956" y="369.4136">GridNoteFactory</text><line style="stroke:#181818;stroke-width:0.5;" x1="1419.4" x2="1574.5201" y1="380.5669" y2="380.5669"/><line style="stroke:#181818;stroke-width:0.5;" x1="1419.4" x2="1574.5201" y1="388.5669" y2="388.5669"/><ellipse cx="1429.4" cy="402.2153" fill="#84BE84" rx="3" ry="3" style="stroke:#038048;stroke-width:1;"/><text fill="#000000" font-family="sans-serif" font-size="14" lengthAdjust="spacing" textLength="131.1201" x="1438.4" y="405.562">createNote(): Note</text></g><!--class LinedNoteFactory--><g id="elem_LinedNoteFactory"><rect codeLine="74" fill="#F1F1F1" height="64.2969" id="LinedNoteFactory" rx="2.5" ry="2.5" style="stroke:#181818;stroke-width:0.5;" width="157.1201" x="1610.4" y="348.5669"/><ellipse cx="1626.0715" cy="364.5669" fill="#ADD1B2" rx="11" ry="11" style="stroke:#181818;stroke-width:1;"/><path d="M1629.0402,370.2075 Q1628.4621,370.5044 1627.8215,370.645 Q1627.1809,370.8013 1626.4777,370.8013 Q1623.9777,370.8013 1622.6496,369.1606 Q1621.3371,367.5044 1621.3371,364.3794 Q1621.3371,361.2544 1622.6496,359.5981 Q1623.9777,357.9419 1626.4777,357.9419 Q1627.1809,357.9419 1627.8215,358.0981 Q1628.4777,358.2544 1629.0402,358.5513 L1629.0402,361.27 Q1628.4152,360.6919 1627.8215,360.4263 Q1627.2277,360.145 1626.6027,360.145 Q1625.259,360.145 1624.5715,361.2231 Q1623.884,362.2856 1623.884,364.3794 Q1623.884,366.4731 1624.5715,367.5513 Q1625.259,368.6138 1626.6027,368.6138 Q1627.2277,368.6138 1627.8215,368.3481 Q1628.4152,368.0669 1629.0402,367.4888 L1629.0402,370.2075 Z " fill="#000000"/><text fill="#000000" font-family="sans-serif" font-size="14" lengthAdjust="spacing" textLength="123.6279" x="1640.2207" y="369.4136">LinedNoteFactory</text><line style="stroke:#181818;stroke-width:0.5;" x1="1611.4" x2="1766.5201" y1="380.5669" y2="380.5669"/><line style="stroke:#181818;stroke-width:0.5;" x1="1611.4" x2="1766.5201" y1="388.5669" y2="388.5669"/><ellipse cx="1621.4" cy="402.2153" fill="#84BE84" rx="3" ry="3" style="stroke:#038048;stroke-width:1;"/><text fill="#000000" font-family="sans-serif" font-size="14" lengthAdjust="spacing" textLength="131.1201" x="1630.4" y="405.562">createNote(): Note</text></g><!--class BlankPageNoteFactory--><g id="elem_BlankPageNoteFactory"><rect codeLine="78" fill="#F1F1F1" height="64.2969" id="BlankPageNoteFactory" rx="2.5" ry="2.5" style="stroke:#181818;stroke-width:0.5;" width="191.1406" x="1802.39" y="348.5669"/><ellipse cx="1817.39" cy="364.5669" fill="#ADD1B2" rx="11" ry="11" style="stroke:#181818;stroke-width:1;"/><path d="M1820.3588,370.2075 Q1819.7806,370.5044 1819.14,370.645 Q1818.4994,370.8013 1817.7963,370.8013 Q1815.2963,370.8013 1813.9681,369.1606 Q1812.6556,367.5044 1812.6556,364.3794 Q1812.6556,361.2544 1813.9681,359.5981 Q1815.2963,357.9419 1817.7963,357.9419 Q1818.4994,357.9419 1819.14,358.0981 Q1819.7963,358.2544 1820.3588,358.5513 L1820.3588,361.27 Q1819.7338,360.6919 1819.14,360.4263 Q1818.5463,360.145 1817.9213,360.145 Q1816.5775,360.145 1815.89,361.2231 Q1815.2025,362.2856 1815.2025,364.3794 Q1815.2025,366.4731 1815.89,367.5513 Q1816.5775,368.6138 1817.9213,368.6138 Q1818.5463,368.6138 1819.14,368.3481 Q1819.7338,368.0669 1820.3588,367.4888 L1820.3588,370.2075 Z " fill="#000000"/><text fill="#000000" font-family="sans-serif" font-size="14" lengthAdjust="spacing" textLength="159.1406" x="1831.39" y="369.4136">BlankPageNoteFactory</text><line style="stroke:#181818;stroke-width:0.5;" x1="1803.39" x2="1992.5306" y1="380.5669" y2="380.5669"/><line style="stroke:#181818;stroke-width:0.5;" x1="1803.39" x2="1992.5306" y1="388.5669" y2="388.5669"/><ellipse cx="1813.39" cy="402.2153" fill="#84BE84" rx="3" ry="3" style="stroke:#038048;stroke-width:1;"/><text fill="#000000" font-family="sans-serif" font-size="14" lengthAdjust="spacing" textLength="131.1201" x="1822.39" y="405.562">createNote(): Note</text></g><!--class NoteObserver--><g id="elem_NoteObserver"><rect codeLine="82" fill="#F1F1F1" height="64.2969" id="NoteObserver" rx="2.5" ry="2.5" style="stroke:#181818;stroke-width:0.5;" width="160.1006" x="142.91" y="745.5369"/><ellipse cx="171.7413" cy="761.5369" fill="#B4A7E5" rx="11" ry="11" style="stroke:#181818;stroke-width:1;"/><path d="M167.6632,757.3025 L167.6632,755.1463 L175.0538,755.1463 L175.0538,757.3025 L172.5851,757.3025 L172.5851,765.3806 L175.0538,765.3806 L175.0538,767.5369 L167.6632,767.5369 L167.6632,765.3806 L170.132,765.3806 L170.132,757.3025 L167.6632,757.3025 Z " fill="#000000"/><text fill="#000000" font-family="sans-serif" font-size="14" font-style="italic" lengthAdjust="spacing" textLength="97.3643" x="188.815" y="766.3836">NoteObserver</text><line style="stroke:#181818;stroke-width:0.5;" x1="143.91" x2="302.0106" y1="777.5369" y2="777.5369"/><line style="stroke:#181818;stroke-width:0.5;" x1="143.91" x2="302.0106" y1="785.5369" y2="785.5369"/><ellipse cx="153.91" cy="799.1853" fill="#84BE84" rx="3" ry="3" style="stroke:#038048;stroke-width:1;"/><text fill="#000000" font-family="sans-serif" font-size="14" lengthAdjust="spacing" textLength="134.1006" x="162.91" y="802.532">update(note: Note)</text></g><!--class TagSystem--><g id="elem_TagSystem"><rect codeLine="86" fill="#F1F1F1" height="64.2969" id="TagSystem" rx="2.5" ry="2.5" style="stroke:#181818;stroke-width:0.5;" width="160.1006" x="45.91" y="870.8269"/><ellipse cx="83.3546" cy="886.8269" fill="#ADD1B2" rx="11" ry="11" style="stroke:#181818;stroke-width:1;"/><path d="M86.3234,892.4675 Q85.7453,892.7644 85.1046,892.905 Q84.464,893.0613 83.7609,893.0613 Q81.2609,893.0613 79.9328,891.4206 Q78.6203,889.7644 78.6203,886.6394 Q78.6203,883.5144 79.9328,881.8581 Q81.2609,880.2019 83.7609,880.2019 Q84.464,880.2019 85.1046,880.3581 Q85.7609,880.5144 86.3234,880.8113 L86.3234,883.53 Q85.6984,882.9519 85.1046,882.6863 Q84.5109,882.405 83.8859,882.405 Q82.5421,882.405 81.8546,883.4831 Q81.1671,884.5456 81.1671,886.6394 Q81.1671,888.7331 81.8546,889.8113 Q82.5421,890.8738 83.8859,890.8738 Q84.5109,890.8738 85.1046,890.6081 Q85.6984,890.3269 86.3234,889.7488 L86.3234,892.4675 Z " fill="#000000"/><text fill="#000000" font-family="sans-serif" font-size="14" lengthAdjust="spacing" textLength="78.2236" x="102.3423" y="891.6736">TagSystem</text><line style="stroke:#181818;stroke-width:0.5;" x1="46.91" x2="205.0106" y1="902.8269" y2="902.8269"/><line style="stroke:#181818;stroke-width:0.5;" x1="46.91" x2="205.0106" y1="910.8269" y2="910.8269"/><ellipse cx="56.91" cy="924.4753" fill="#84BE84" rx="3" ry="3" style="stroke:#038048;stroke-width:1;"/><text fill="#000000" font-family="sans-serif" font-size="14" lengthAdjust="spacing" textLength="134.1006" x="65.91" y="927.822">update(note: Note)</text></g><!--class SyncModule--><g id="elem_SyncModule"><rect codeLine="90" fill="#F1F1F1" height="64.2969" id="SyncModule" rx="2.5" ry="2.5" style="stroke:#181818;stroke-width:0.5;" width="160.1006" x="240.91" y="870.8269"/><ellipse cx="275.463" cy="886.8269" fill="#ADD1B2" rx="11" ry="11" style="stroke:#181818;stroke-width:1;"/><path d="M278.4318,892.4675 Q277.8537,892.7644 277.213,892.905 Q276.5724,893.0613 275.8693,893.0613 Q273.3693,893.0613 272.0412,891.4206 Q270.7287,889.7644 270.7287,886.6394 Q270.7287,883.5144 272.0412,881.8581 Q273.3693,880.2019 275.8693,880.2019 Q276.5724,880.2019 277.213,880.3581 Q277.8693,880.5144 278.4318,880.8113 L278.4318,883.53 Q277.8068,882.9519 277.213,882.6863 Q276.6193,882.405 275.9943,882.405 Q274.6505,882.405 273.963,883.4831 Q273.2755,884.5456 273.2755,886.6394 Q273.2755,888.7331 273.963,889.8113 Q274.6505,890.8738 275.9943,890.8738 Q276.6193,890.8738 277.213,890.6081 Q277.8068,890.3269 278.4318,889.7488 L278.4318,892.4675 Z " fill="#000000"/><text fill="#000000" font-family="sans-serif" font-size="14" lengthAdjust="spacing" textLength="84.6494" x="293.8081" y="891.6736">SyncModule</text><line style="stroke:#181818;stroke-width:0.5;" x1="241.91" x2="400.0106" y1="902.8269" y2="902.8269"/><line style="stroke:#181818;stroke-width:0.5;" x1="241.91" x2="400.0106" y1="910.8269" y2="910.8269"/><ellipse cx="251.91" cy="924.4753" fill="#84BE84" rx="3" ry="3" style="stroke:#038048;stroke-width:1;"/><text fill="#000000" font-family="sans-serif" font-size="14" lengthAdjust="spacing" textLength="134.1006" x="260.91" y="927.822">update(note: Note)</text></g><!--class NoteObservable--><g id="elem_NoteObservable"><rect codeLine="94" fill="#F1F1F1" height="113.1875" id="NoteObservable" rx="2.5" ry="2.5" style="stroke:#181818;stroke-width:0.5;" width="318.2021" x="63.86" y="571.3469"/><ellipse cx="162.2291" cy="587.3469" fill="#ADD1B2" rx="11" ry="11" style="stroke:#181818;stroke-width:1;"/><path d="M165.1979,592.9875 Q164.6198,593.2844 163.9791,593.425 Q163.3385,593.5813 162.6354,593.5813 Q160.1354,593.5813 158.8073,591.9406 Q157.4948,590.2844 157.4948,587.1594 Q157.4948,584.0344 158.8073,582.3781 Q160.1354,580.7219 162.6354,580.7219 Q163.3385,580.7219 163.9791,580.8781 Q164.6354,581.0344 165.1979,581.3313 L165.1979,584.05 Q164.5729,583.4719 163.9791,583.2063 Q163.3854,582.925 162.7604,582.925 Q161.4166,582.925 160.7291,584.0031 Q160.0416,585.0656 160.0416,587.1594 Q160.0416,589.2531 160.7291,590.3313 Q161.4166,591.3938 162.7604,591.3938 Q163.3854,591.3938 163.9791,591.1281 Q164.5729,590.8469 165.1979,590.2688 L165.1979,592.9875 Z " fill="#000000"/><text fill="#000000" font-family="sans-serif" font-size="14" lengthAdjust="spacing" textLength="112.9639" x="182.7291" y="592.1936">NoteObservable</text><line style="stroke:#181818;stroke-width:0.5;" x1="64.86" x2="381.0621" y1="603.3469" y2="603.3469"/><rect fill="none" height="6" style="stroke:#C82930;stroke-width:1;" width="6" x="71.86" y="613.9953"/><text fill="#000000" font-family="sans-serif" font-size="14" lengthAdjust="spacing" textLength="223.5283" x="83.86" y="620.342">observers: List&lt;NoteObserver&gt;</text><line style="stroke:#181818;stroke-width:0.5;" x1="64.86" x2="381.0621" y1="627.6438" y2="627.6438"/><ellipse cx="74.86" cy="641.2922" fill="#84BE84" rx="3" ry="3" style="stroke:#038048;stroke-width:1;"/><text fill="#000000" font-family="sans-serif" font-size="14" lengthAdjust="spacing" textLength="265.084" x="83.86" y="644.6389">addObserver(NoteObserver observer)</text><ellipse cx="74.86" cy="657.5891" fill="#84BE84" rx="3" ry="3" style="stroke:#038048;stroke-width:1;"/><text fill="#000000" font-family="sans-serif" font-size="14" lengthAdjust="spacing" textLength="292.2021" x="83.86" y="660.9357">removeObserver(NoteObserver observer)</text><ellipse cx="74.86" cy="673.8859" fill="#84BE84" rx="3" ry="3" style="stroke:#038048;stroke-width:1;"/><text fill="#000000" font-family="sans-serif" font-size="14" lengthAdjust="spacing" textLength="122.4727" x="83.86" y="677.2326">notifyObservers()</text></g><!--class Drawing--><g id="elem_Drawing"><rect codeLine="101" fill="#F1F1F1" height="64.2969" id="Drawing" rx="2.5" ry="2.5" style="stroke:#181818;stroke-width:0.5;" width="418.6016" x="1467.66" y="595.7869"/><ellipse cx="1643.6034" cy="611.7869" fill="#B4A7E5" rx="11" ry="11" style="stroke:#181818;stroke-width:1;"/><path d="M1639.5252,607.5525 L1639.5252,605.3963 L1646.9159,605.3963 L1646.9159,607.5525 L1644.4471,607.5525 L1644.4471,615.6306 L1646.9159,615.6306 L1646.9159,617.7869 L1639.5252,617.7869 L1639.5252,615.6306 L1641.994,615.6306 L1641.994,607.5525 L1639.5252,607.5525 Z " fill="#000000"/><text fill="#000000" font-family="sans-serif" font-size="14" font-style="italic" lengthAdjust="spacing" textLength="58.2148" x="1664.1034" y="616.6336">Drawing</text><line style="stroke:#181818;stroke-width:0.5;" x1="1468.66" x2="1885.2616" y1="627.7869" y2="627.7869"/><line style="stroke:#181818;stroke-width:0.5;" x1="1468.66" x2="1885.2616" y1="635.7869" y2="635.7869"/><ellipse cx="1478.66" cy="649.4353" fill="#84BE84" rx="3" ry="3" style="stroke:#038048;stroke-width:1;"/><text fill="#000000" font-family="sans-serif" font-size="14" lengthAdjust="spacing" textLength="392.6016" x="1487.66" y="652.782">drawShape(shape: String, color: String, thickness: float)</text></g><!--class BasicDrawing--><g id="elem_BasicDrawing"><rect codeLine="105" fill="#F1F1F1" height="64.2969" id="BasicDrawing" rx="2.5" ry="2.5" style="stroke:#181818;stroke-width:0.5;" width="418.6016" x="1467.66" y="745.5369"/><ellipse cx="1625.0711" cy="761.5369" fill="#ADD1B2" rx="11" ry="11" style="stroke:#181818;stroke-width:1;"/><path d="M1628.0399,767.1775 Q1627.4618,767.4744 1626.8211,767.615 Q1626.1805,767.7713 1625.4774,767.7713 Q1622.9774,767.7713 1621.6493,766.1306 Q1620.3368,764.4744 1620.3368,761.3494 Q1620.3368,758.2244 1621.6493,756.5681 Q1622.9774,754.9119 1625.4774,754.9119 Q1626.1805,754.9119 1626.8211,755.0681 Q1627.4774,755.2244 1628.0399,755.5213 L1628.0399,758.24 Q1627.4149,757.6619 1626.8211,757.3963 Q1626.2274,757.115 1625.6024,757.115 Q1624.2586,757.115 1623.5711,758.1931 Q1622.8836,759.2556 1622.8836,761.3494 Q1622.8836,763.4431 1623.5711,764.5213 Q1624.2586,765.5838 1625.6024,765.5838 Q1626.2274,765.5838 1626.8211,765.3181 Q1627.4149,765.0369 1628.0399,764.4588 L1628.0399,767.1775 Z " fill="#000000"/><text fill="#000000" font-family="sans-serif" font-size="14" lengthAdjust="spacing" textLength="95.2793" x="1645.5711" y="766.3836">BasicDrawing</text><line style="stroke:#181818;stroke-width:0.5;" x1="1468.66" x2="1885.2616" y1="777.5369" y2="777.5369"/><line style="stroke:#181818;stroke-width:0.5;" x1="1468.66" x2="1885.2616" y1="785.5369" y2="785.5369"/><ellipse cx="1478.66" cy="799.1853" fill="#84BE84" rx="3" ry="3" style="stroke:#038048;stroke-width:1;"/><text fill="#000000" font-family="sans-serif" font-size="14" lengthAdjust="spacing" textLength="392.6016" x="1487.66" y="802.532">drawShape(shape: String, color: String, thickness: float)</text></g><!--class Shape--><g id="elem_Shape"><rect codeLine="110" fill="#F1F1F1" height="64.2969" id="Shape" rx="2.5" ry="2.5" style="stroke:#181818;stroke-width:0.5;" width="391.1211" x="2448.4" y="85.0369"/><ellipse cx="2617.7911" cy="101.0369" fill="#A9DCDF" rx="11" ry="11" style="stroke:#181818;stroke-width:1;"/><path d="M2617.9005,96.3806 L2616.7442,101.4588 L2619.0724,101.4588 L2617.9005,96.3806 Z M2616.4161,94.1463 L2619.4005,94.1463 L2622.7599,106.5369 L2620.3067,106.5369 L2619.5411,103.4744 L2616.2599,103.4744 L2615.5099,106.5369 L2613.0724,106.5369 L2616.4161,94.1463 Z " fill="#000000"/><text fill="#000000" font-family="sans-serif" font-size="14" font-style="italic" lengthAdjust="spacing" textLength="43.8389" x="2638.2911" y="105.8836">Shape</text><line style="stroke:#181818;stroke-width:0.5;" x1="2449.4" x2="2838.5211" y1="117.0369" y2="117.0369"/><line style="stroke:#181818;stroke-width:0.5;" x1="2449.4" x2="2838.5211" y1="125.0369" y2="125.0369"/><ellipse cx="2459.4" cy="138.6853" fill="#84BE84" rx="3" ry="3" style="stroke:#038048;stroke-width:1;"/><text fill="#000000" font-family="sans-serif" font-size="14" lengthAdjust="spacing" textLength="365.1211" x="2468.4" y="142.032">draw(Drawing drawing, String color, float thickness)</text></g><!--class Circle--><g id="elem_Circle"><rect codeLine="115" fill="#F1F1F1" height="48" id="Circle" rx="2.5" ry="2.5" style="stroke:#181818;stroke-width:0.5;" width="71.6211" x="2293.15" y="356.7169"/><ellipse cx="2308.15" cy="372.7169" fill="#ADD1B2" rx="11" ry="11" style="stroke:#181818;stroke-width:1;"/><path d="M2311.1188,378.3575 Q2310.5406,378.6544 2309.9,378.795 Q2309.2594,378.9513 2308.5563,378.9513 Q2306.0563,378.9513 2304.7281,377.3106 Q2303.4156,375.6544 2303.4156,372.5294 Q2303.4156,369.4044 2304.7281,367.7481 Q2306.0563,366.0919 2308.5563,366.0919 Q2309.2594,366.0919 2309.9,366.2481 Q2310.5563,366.4044 2311.1188,366.7013 L2311.1188,369.42 Q2310.4938,368.8419 2309.9,368.5763 Q2309.3063,368.295 2308.6813,368.295 Q2307.3375,368.295 2306.65,369.3731 Q2305.9625,370.4356 2305.9625,372.5294 Q2305.9625,374.6231 2306.65,375.7013 Q2307.3375,376.7638 2308.6813,376.7638 Q2309.3063,376.7638 2309.9,376.4981 Q2310.4938,376.2169 2311.1188,375.6388 L2311.1188,378.3575 Z " fill="#000000"/><text fill="#000000" font-family="sans-serif" font-size="14" lengthAdjust="spacing" textLength="39.6211" x="2322.15" y="377.5636">Circle</text><line style="stroke:#181818;stroke-width:0.5;" x1="2294.15" x2="2363.7711" y1="388.7169" y2="388.7169"/><line style="stroke:#181818;stroke-width:0.5;" x1="2294.15" x2="2363.7711" y1="396.7169" y2="396.7169"/></g><!--class Rectangle--><g id="elem_Rectangle"><rect codeLine="116" fill="#F1F1F1" height="48" id="Rectangle" rx="2.5" ry="2.5" style="stroke:#181818;stroke-width:0.5;" width="102.3691" x="2399.77" y="356.7169"/><ellipse cx="2414.77" cy="372.7169" fill="#ADD1B2" rx="11" ry="11" style="stroke:#181818;stroke-width:1;"/><path d="M2417.7388,378.3575 Q2417.1606,378.6544 2416.52,378.795 Q2415.8794,378.9513 2415.1763,378.9513 Q2412.6763,378.9513 2411.3481,377.3106 Q2410.0356,375.6544 2410.0356,372.5294 Q2410.0356,369.4044 2411.3481,367.7481 Q2412.6763,366.0919 2415.1763,366.0919 Q2415.8794,366.0919 2416.52,366.2481 Q2417.1763,366.4044 2417.7388,366.7013 L2417.7388,369.42 Q2417.1138,368.8419 2416.52,368.5763 Q2415.9263,368.295 2415.3013,368.295 Q2413.9575,368.295 2413.27,369.3731 Q2412.5825,370.4356 2412.5825,372.5294 Q2412.5825,374.6231 2413.27,375.7013 Q2413.9575,376.7638 2415.3013,376.7638 Q2415.9263,376.7638 2416.52,376.4981 Q2417.1138,376.2169 2417.7388,375.6388 L2417.7388,378.3575 Z " fill="#000000"/><text fill="#000000" font-family="sans-serif" font-size="14" lengthAdjust="spacing" textLength="70.3691" x="2428.77" y="377.5636">Rectangle</text><line style="stroke:#181818;stroke-width:0.5;" x1="2400.77" x2="2501.1391" y1="388.7169" y2="388.7169"/><line style="stroke:#181818;stroke-width:0.5;" x1="2400.77" x2="2501.1391" y1="396.7169" y2="396.7169"/></g><!--class Square--><g id="elem_Square"><rect codeLine="117" fill="#F1F1F1" height="48" id="Square" rx="2.5" ry="2.5" style="stroke:#181818;stroke-width:0.5;" width="81.5947" x="2537.16" y="356.7169"/><ellipse cx="2552.16" cy="372.7169" fill="#ADD1B2" rx="11" ry="11" style="stroke:#181818;stroke-width:1;"/><path d="M2555.1288,378.3575 Q2554.5506,378.6544 2553.91,378.795 Q2553.2694,378.9513 2552.5663,378.9513 Q2550.0663,378.9513 2548.7381,377.3106 Q2547.4256,375.6544 2547.4256,372.5294 Q2547.4256,369.4044 2548.7381,367.7481 Q2550.0663,366.0919 2552.5663,366.0919 Q2553.2694,366.0919 2553.91,366.2481 Q2554.5663,366.4044 2555.1288,366.7013 L2555.1288,369.42 Q2554.5038,368.8419 2553.91,368.5763 Q2553.3163,368.295 2552.6913,368.295 Q2551.3475,368.295 2550.66,369.3731 Q2549.9725,370.4356 2549.9725,372.5294 Q2549.9725,374.6231 2550.66,375.7013 Q2551.3475,376.7638 2552.6913,376.7638 Q2553.3163,376.7638 2553.91,376.4981 Q2554.5038,376.2169 2555.1288,375.6388 L2555.1288,378.3575 Z " fill="#000000"/><text fill="#000000" font-family="sans-serif" font-size="14" lengthAdjust="spacing" textLength="49.5947" x="2566.16" y="377.5636">Square</text><line style="stroke:#181818;stroke-width:0.5;" x1="2538.16" x2="2617.7547" y1="388.7169" y2="388.7169"/><line style="stroke:#181818;stroke-width:0.5;" x1="2538.16" x2="2617.7547" y1="396.7169" y2="396.7169"/></g><!--class CurvedLine--><g id="elem_CurvedLine"><rect codeLine="118" fill="#F1F1F1" height="48" id="CurvedLine" rx="2.5" ry="2.5" style="stroke:#181818;stroke-width:0.5;" width="111.3652" x="2653.28" y="356.7169"/><ellipse cx="2668.28" cy="372.7169" fill="#ADD1B2" rx="11" ry="11" style="stroke:#181818;stroke-width:1;"/><path d="M2671.2488,378.3575 Q2670.6706,378.6544 2670.03,378.795 Q2669.3894,378.9513 2668.6863,378.9513 Q2666.1863,378.9513 2664.8581,377.3106 Q2663.5456,375.6544 2663.5456,372.5294 Q2663.5456,369.4044 2664.8581,367.7481 Q2666.1863,366.0919 2668.6863,366.0919 Q2669.3894,366.0919 2670.03,366.2481 Q2670.6863,366.4044 2671.2488,366.7013 L2671.2488,369.42 Q2670.6238,368.8419 2670.03,368.5763 Q2669.4363,368.295 2668.8113,368.295 Q2667.4675,368.295 2666.78,369.3731 Q2666.0925,370.4356 2666.0925,372.5294 Q2666.0925,374.6231 2666.78,375.7013 Q2667.4675,376.7638 2668.8113,376.7638 Q2669.4363,376.7638 2670.03,376.4981 Q2670.6238,376.2169 2671.2488,375.6388 L2671.2488,378.3575 Z " fill="#000000"/><text fill="#000000" font-family="sans-serif" font-size="14" lengthAdjust="spacing" textLength="79.3652" x="2682.28" y="377.5636">CurvedLine</text><line style="stroke:#181818;stroke-width:0.5;" x1="2654.28" x2="2763.6452" y1="388.7169" y2="388.7169"/><line style="stroke:#181818;stroke-width:0.5;" x1="2654.28" x2="2763.6452" y1="396.7169" y2="396.7169"/></g><!--class DashedLine--><g id="elem_DashedLine"><rect codeLine="119" fill="#F1F1F1" height="48" id="DashedLine" rx="2.5" ry="2.5" style="stroke:#181818;stroke-width:0.5;" width="114.2021" x="2799.86" y="356.7169"/><ellipse cx="2814.86" cy="372.7169" fill="#ADD1B2" rx="11" ry="11" style="stroke:#181818;stroke-width:1;"/><path d="M2817.8288,378.3575 Q2817.2506,378.6544 2816.61,378.795 Q2815.9694,378.9513 2815.2663,378.9513 Q2812.7663,378.9513 2811.4381,377.3106 Q2810.1256,375.6544 2810.1256,372.5294 Q2810.1256,369.4044 2811.4381,367.7481 Q2812.7663,366.0919 2815.2663,366.0919 Q2815.9694,366.0919 2816.61,366.2481 Q2817.2663,366.4044 2817.8288,366.7013 L2817.8288,369.42 Q2817.2038,368.8419 2816.61,368.5763 Q2816.0163,368.295 2815.3913,368.295 Q2814.0475,368.295 2813.36,369.3731 Q2812.6725,370.4356 2812.6725,372.5294 Q2812.6725,374.6231 2813.36,375.7013 Q2814.0475,376.7638 2815.3913,376.7638 Q2816.0163,376.7638 2816.61,376.4981 Q2817.2038,376.2169 2817.8288,375.6388 L2817.8288,378.3575 Z " fill="#000000"/><text fill="#000000" font-family="sans-serif" font-size="14" lengthAdjust="spacing" textLength="82.2021" x="2828.86" y="377.5636">DashedLine</text><line style="stroke:#181818;stroke-width:0.5;" x1="2800.86" x2="2913.0621" y1="388.7169" y2="388.7169"/><line style="stroke:#181818;stroke-width:0.5;" x1="2800.86" x2="2913.0621" y1="396.7169" y2="396.7169"/></g><!--class Arrow--><g id="elem_Arrow"><rect codeLine="120" fill="#F1F1F1" height="48" id="Arrow" rx="2.5" ry="2.5" style="stroke:#181818;stroke-width:0.5;" width="73.1045" x="2949.41" y="356.7169"/><ellipse cx="2964.41" cy="372.7169" fill="#ADD1B2" rx="11" ry="11" style="stroke:#181818;stroke-width:1;"/><path d="M2967.3788,378.3575 Q2966.8006,378.6544 2966.16,378.795 Q2965.5194,378.9513 2964.8163,378.9513 Q2962.3163,378.9513 2960.9881,377.3106 Q2959.6756,375.6544 2959.6756,372.5294 Q2959.6756,369.4044 2960.9881,367.7481 Q2962.3163,366.0919 2964.8163,366.0919 Q2965.5194,366.0919 2966.16,366.2481 Q2966.8163,366.4044 2967.3788,366.7013 L2967.3788,369.42 Q2966.7538,368.8419 2966.16,368.5763 Q2965.5663,368.295 2964.9413,368.295 Q2963.5975,368.295 2962.91,369.3731 Q2962.2225,370.4356 2962.2225,372.5294 Q2962.2225,374.6231 2962.91,375.7013 Q2963.5975,376.7638 2964.9413,376.7638 Q2965.5663,376.7638 2966.16,376.4981 Q2966.7538,376.2169 2967.3788,375.6388 L2967.3788,378.3575 Z " fill="#000000"/><text fill="#000000" font-family="sans-serif" font-size="14" lengthAdjust="spacing" textLength="41.1045" x="2978.41" y="377.5636">Arrow</text><line style="stroke:#181818;stroke-width:0.5;" x1="2950.41" x2="3021.5145" y1="388.7169" y2="388.7169"/><line style="stroke:#181818;stroke-width:0.5;" x1="2950.41" x2="3021.5145" y1="396.7169" y2="396.7169"/></g><!--class Pen--><g id="elem_Pen"><rect codeLine="122" fill="#F1F1F1" height="194.6719" id="Pen" rx="2.5" ry="2.5" style="stroke:#181818;stroke-width:0.5;" width="229.5469" x="2028.18" y="283.3769"/><ellipse cx="2125.7391" cy="299.3769" fill="#A9DCDF" rx="11" ry="11" style="stroke:#181818;stroke-width:1;"/><path d="M2125.8485,294.7206 L2124.6922,299.7988 L2127.0203,299.7988 L2125.8485,294.7206 Z M2124.3641,292.4863 L2127.3485,292.4863 L2130.7078,304.8769 L2128.2547,304.8769 L2127.4891,301.8144 L2124.2078,301.8144 L2123.4578,304.8769 L2121.0203,304.8769 L2124.3641,292.4863 Z " fill="#000000"/><text fill="#000000" font-family="sans-serif" font-size="14" font-style="italic" lengthAdjust="spacing" textLength="25.9287" x="2146.2391" y="304.2236">Pen</text><line style="stroke:#181818;stroke-width:0.5;" x1="2029.18" x2="2256.7269" y1="315.3769" y2="315.3769"/><rect fill="none" height="6" style="stroke:#C82930;stroke-width:1;" width="6" x="2036.18" y="326.0253"/><text fill="#000000" font-family="sans-serif" font-size="14" lengthAdjust="spacing" textLength="85.4219" x="2048.18" y="332.372">color: String</text><rect fill="none" height="6" style="stroke:#C82930;stroke-width:1;" width="6" x="2036.18" y="342.3222"/><text fill="#000000" font-family="sans-serif" font-size="14" lengthAdjust="spacing" textLength="106.75" x="2048.18" y="348.6689">thickness: float</text><rect fill="none" height="6" style="stroke:#C82930;stroke-width:1;" width="6" x="2036.18" y="358.6191"/><text fill="#000000" font-family="sans-serif" font-size="14" lengthAdjust="spacing" textLength="123.7031" x="2048.18" y="364.9657">drawing: Drawing</text><line style="stroke:#181818;stroke-width:0.5;" x1="2029.18" x2="2256.7269" y1="372.2675" y2="372.2675"/><ellipse cx="2039.18" cy="385.9159" fill="#84BE84" rx="3" ry="3" style="stroke:#038048;stroke-width:1;"/><text fill="#000000" font-family="sans-serif" font-size="14" lengthAdjust="spacing" textLength="149.5771" x="2048.18" y="389.2626">setColor(String color)</text><ellipse cx="2039.18" cy="402.2128" fill="#84BE84" rx="3" ry="3" style="stroke:#038048;stroke-width:1;"/><text fill="#000000" font-family="sans-serif" font-size="14" lengthAdjust="spacing" textLength="203.5469" x="2048.18" y="405.5595">setThickness(float thickness)</text><ellipse cx="2039.18" cy="418.5097" fill="#84BE84" rx="3" ry="3" style="stroke:#038048;stroke-width:1;"/><text fill="#000000" font-family="sans-serif" font-size="14" lengthAdjust="spacing" textLength="121.4131" x="2048.18" y="421.8564">getColor(): String</text><ellipse cx="2039.18" cy="434.8066" fill="#84BE84" rx="3" ry="3" style="stroke:#038048;stroke-width:1;"/><text fill="#000000" font-family="sans-serif" font-size="14" lengthAdjust="spacing" textLength="143.7256" x="2048.18" y="438.1532">getThickness(): float</text><ellipse cx="2039.18" cy="451.1034" fill="#84BE84" rx="3" ry="3" style="stroke:#038048;stroke-width:1;"/><text fill="#000000" font-family="sans-serif" font-size="14" lengthAdjust="spacing" textLength="74.7715" x="2048.18" y="454.4501">drawLine()</text><ellipse cx="2039.18" cy="467.4003" fill="#84BE84" rx="3" ry="3" style="stroke:#038048;stroke-width:1;"/><text fill="#000000" font-family="sans-serif" font-size="14" lengthAdjust="spacing" textLength="177.9121" x="2048.18" y="470.747">drawShape(String shape)</text></g><!--class Highlighter--><g id="elem_Highlighter"><rect codeLine="134" fill="#F1F1F1" height="80.5938" id="Highlighter" rx="2.5" ry="2.5" style="stroke:#181818;stroke-width:0.5;" width="203.9121" x="1921" y="587.6469"/><ellipse cx="1979.9189" cy="603.6469" fill="#ADD1B2" rx="11" ry="11" style="stroke:#181818;stroke-width:1;"/><path d="M1982.8877,609.2875 Q1982.3096,609.5844 1981.6689,609.725 Q1981.0283,609.8813 1980.3252,609.8813 Q1977.8252,609.8813 1976.4971,608.2406 Q1975.1846,606.5844 1975.1846,603.4594 Q1975.1846,600.3344 1976.4971,598.6781 Q1977.8252,597.0219 1980.3252,597.0219 Q1981.0283,597.0219 1981.6689,597.1781 Q1982.3252,597.3344 1982.8877,597.6313 L1982.8877,600.35 Q1982.2627,599.7719 1981.6689,599.5063 Q1981.0752,599.225 1980.4502,599.225 Q1979.1064,599.225 1978.4189,600.3031 Q1977.7314,601.3656 1977.7314,603.4594 Q1977.7314,605.5531 1978.4189,606.6313 Q1979.1064,607.6938 1980.4502,607.6938 Q1981.0752,607.6938 1981.6689,607.4281 Q1982.2627,607.1469 1982.8877,606.5688 L1982.8877,609.2875 Z " fill="#000000"/><text fill="#000000" font-family="sans-serif" font-size="14" lengthAdjust="spacing" textLength="77.5742" x="2000.4189" y="608.4936">Highlighter</text><line style="stroke:#181818;stroke-width:0.5;" x1="1922" x2="2123.9121" y1="619.6469" y2="619.6469"/><line style="stroke:#181818;stroke-width:0.5;" x1="1922" x2="2123.9121" y1="627.6469" y2="627.6469"/><ellipse cx="1932" cy="641.2953" fill="#84BE84" rx="3" ry="3" style="stroke:#038048;stroke-width:1;"/><text fill="#000000" font-family="sans-serif" font-size="14" lengthAdjust="spacing" textLength="74.7715" x="1941" y="644.642">drawLine()</text><ellipse cx="1932" cy="657.5922" fill="#84BE84" rx="3" ry="3" style="stroke:#038048;stroke-width:1;"/><text fill="#000000" font-family="sans-serif" font-size="14" lengthAdjust="spacing" textLength="177.9121" x="1941" y="660.9389">drawShape(String shape)</text></g><!--class Pencil--><g id="elem_Pencil"><rect codeLine="139" fill="#F1F1F1" height="80.5938" id="Pencil" rx="2.5" ry="2.5" style="stroke:#181818;stroke-width:0.5;" width="203.9121" x="2160" y="587.6469"/><ellipse cx="2237.0034" cy="603.6469" fill="#ADD1B2" rx="11" ry="11" style="stroke:#181818;stroke-width:1;"/><path d="M2239.9722,609.2875 Q2239.394,609.5844 2238.7534,609.725 Q2238.1128,609.8813 2237.4097,609.8813 Q2234.9097,609.8813 2233.5815,608.2406 Q2232.269,606.5844 2232.269,603.4594 Q2232.269,600.3344 2233.5815,598.6781 Q2234.9097,597.0219 2237.4097,597.0219 Q2238.1128,597.0219 2238.7534,597.1781 Q2239.4097,597.3344 2239.9722,597.6313 L2239.9722,600.35 Q2239.3472,599.7719 2238.7534,599.5063 Q2238.1597,599.225 2237.5347,599.225 Q2236.1909,599.225 2235.5034,600.3031 Q2234.8159,601.3656 2234.8159,603.4594 Q2234.8159,605.5531 2235.5034,606.6313 Q2236.1909,607.6938 2237.5347,607.6938 Q2238.1597,607.6938 2238.7534,607.4281 Q2239.3472,607.1469 2239.9722,606.5688 L2239.9722,609.2875 Z " fill="#000000"/><text fill="#000000" font-family="sans-serif" font-size="14" lengthAdjust="spacing" textLength="41.4053" x="2257.5034" y="608.4936">Pencil</text><line style="stroke:#181818;stroke-width:0.5;" x1="2161" x2="2362.9121" y1="619.6469" y2="619.6469"/><line style="stroke:#181818;stroke-width:0.5;" x1="2161" x2="2362.9121" y1="627.6469" y2="627.6469"/><ellipse cx="2171" cy="641.2953" fill="#84BE84" rx="3" ry="3" style="stroke:#038048;stroke-width:1;"/><text fill="#000000" font-family="sans-serif" font-size="14" lengthAdjust="spacing" textLength="74.7715" x="2180" y="644.642">drawLine()</text><ellipse cx="2171" cy="657.5922" fill="#84BE84" rx="3" ry="3" style="stroke:#038048;stroke-width:1;"/><text fill="#000000" font-family="sans-serif" font-size="14" lengthAdjust="spacing" textLength="177.9121" x="2180" y="660.9389">drawShape(String shape)</text></g><!--class BallpointPen--><g id="elem_BallpointPen"><rect codeLine="144" fill="#F1F1F1" height="80.5938" id="BallpointPen" rx="2.5" ry="2.5" style="stroke:#181818;stroke-width:0.5;" width="203.9121" x="2399" y="587.6469"/><ellipse cx="2452.9082" cy="603.6469" fill="#ADD1B2" rx="11" ry="11" style="stroke:#181818;stroke-width:1;"/><path d="M2455.877,609.2875 Q2455.2988,609.5844 2454.6582,609.725 Q2454.0176,609.8813 2453.3145,609.8813 Q2450.8145,609.8813 2449.4863,608.2406 Q2448.1738,606.5844 2448.1738,603.4594 Q2448.1738,600.3344 2449.4863,598.6781 Q2450.8145,597.0219 2453.3145,597.0219 Q2454.0176,597.0219 2454.6582,597.1781 Q2455.3145,597.3344 2455.877,597.6313 L2455.877,600.35 Q2455.252,599.7719 2454.6582,599.5063 Q2454.0645,599.225 2453.4395,599.225 Q2452.0957,599.225 2451.4082,600.3031 Q2450.7207,601.3656 2450.7207,603.4594 Q2450.7207,605.5531 2451.4082,606.6313 Q2452.0957,607.6938 2453.4395,607.6938 Q2454.0645,607.6938 2454.6582,607.4281 Q2455.252,607.1469 2455.877,606.5688 L2455.877,609.2875 Z " fill="#000000"/><text fill="#000000" font-family="sans-serif" font-size="14" lengthAdjust="spacing" textLength="87.5957" x="2473.4082" y="608.4936">BallpointPen</text><line style="stroke:#181818;stroke-width:0.5;" x1="2400" x2="2601.9121" y1="619.6469" y2="619.6469"/><line style="stroke:#181818;stroke-width:0.5;" x1="2400" x2="2601.9121" y1="627.6469" y2="627.6469"/><ellipse cx="2410" cy="641.2953" fill="#84BE84" rx="3" ry="3" style="stroke:#038048;stroke-width:1;"/><text fill="#000000" font-family="sans-serif" font-size="14" lengthAdjust="spacing" textLength="74.7715" x="2419" y="644.642">drawLine()</text><ellipse cx="2410" cy="657.5922" fill="#84BE84" rx="3" ry="3" style="stroke:#038048;stroke-width:1;"/><text fill="#000000" font-family="sans-serif" font-size="14" lengthAdjust="spacing" textLength="177.9121" x="2419" y="660.9389">drawShape(String shape)</text></g><!--class DrawingTool--><g id="elem_DrawingTool"><rect codeLine="149" fill="#F1F1F1" height="96.8906" id="DrawingTool" rx="2.5" ry="2.5" style="stroke:#181818;stroke-width:0.5;" width="239.7598" x="2023.08" y="68.7469"/><ellipse cx="2094.8163" cy="84.7469" fill="#ADD1B2" rx="11" ry="11" style="stroke:#181818;stroke-width:1;"/><path d="M2097.7851,90.3875 Q2097.207,90.6844 2096.5663,90.825 Q2095.9257,90.9813 2095.2226,90.9813 Q2092.7226,90.9813 2091.3945,89.3406 Q2090.082,87.6844 2090.082,84.5594 Q2090.082,81.4344 2091.3945,79.7781 Q2092.7226,78.1219 2095.2226,78.1219 Q2095.9257,78.1219 2096.5663,78.2781 Q2097.2226,78.4344 2097.7851,78.7313 L2097.7851,81.45 Q2097.1601,80.8719 2096.5663,80.6063 Q2095.9726,80.325 2095.3476,80.325 Q2094.0038,80.325 2093.3163,81.4031 Q2092.6288,82.4656 2092.6288,84.5594 Q2092.6288,86.6531 2093.3163,87.7313 Q2094.0038,88.7938 2095.3476,88.7938 Q2095.9726,88.7938 2096.5663,88.5281 Q2097.1601,88.2469 2097.7851,87.6688 L2097.7851,90.3875 Z " fill="#000000"/><text fill="#000000" font-family="sans-serif" font-size="14" lengthAdjust="spacing" textLength="87.7871" x="2115.3163" y="89.5936">DrawingTool</text><line style="stroke:#181818;stroke-width:0.5;" x1="2024.08" x2="2261.8398" y1="100.7469" y2="100.7469"/><rect fill="none" height="6" style="stroke:#C82930;stroke-width:1;" width="6" x="2031.08" y="111.3953"/><text fill="#000000" font-family="sans-serif" font-size="14" lengthAdjust="spacing" textLength="61.4688" x="2043.08" y="117.742">pen: Pen</text><line style="stroke:#181818;stroke-width:0.5;" x1="2024.08" x2="2261.8398" y1="125.0438" y2="125.0438"/><ellipse cx="2034.08" cy="138.6922" fill="#84BE84" rx="3" ry="3" style="stroke:#038048;stroke-width:1;"/><text fill="#000000" font-family="sans-serif" font-size="14" lengthAdjust="spacing" textLength="115.001" x="2043.08" y="142.0389">setPen(Pen pen)</text><ellipse cx="2034.08" cy="154.9891" fill="#84BE84" rx="3" ry="3" style="stroke:#038048;stroke-width:1;"/><text fill="#000000" font-family="sans-serif" font-size="14" lengthAdjust="spacing" textLength="213.7598" x="2043.08" y="158.3357">performDrawing(String shape)</text></g><!--reverse link NoteComponent to Note--><g id="link_NoteComponent_Note"><path d="M481.5649,184.81 C444.1449,213.01 411.78,237.4069 367.6,270.6969 " fill="none" id="NoteComponent-backto-Note" style="stroke:#181818;stroke-width:1;stroke-dasharray:7.0,7.0;"/><polygon fill="none" points="495.94,173.9769,477.9539,180.0183,485.176,189.6017,495.94,173.9769" style="stroke:#181818;stroke-width:1;"/></g><!--reverse link PageLayout to LinedNote--><g id="link_PageLayout_LinedNote"><path d="M1020.7805,163.3299 C977.0305,213.7299 903.67,298.2469 860.08,348.4669 " fill="none" id="PageLayout-backto-LinedNote" style="stroke:#181818;stroke-width:1;stroke-dasharray:7.0,7.0;"/><polygon fill="none" points="1032.58,149.7369,1016.2495,159.3968,1025.3115,167.2631,1032.58,149.7369" style="stroke:#181818;stroke-width:1;"/></g><!--reverse link PageLayout to GridNote--><g id="link_PageLayout_GridNote"><path d="M1059.96,167.7369 C1059.96,218.1369 1059.96,298.2469 1059.96,348.4669 " fill="none" id="PageLayout-backto-GridNote" style="stroke:#181818;stroke-width:1;stroke-dasharray:7.0,7.0;"/><polygon fill="none" points="1059.96,149.7369,1053.96,167.7369,1065.96,167.7369,1059.96,149.7369" style="stroke:#181818;stroke-width:1;"/></g><!--reverse link PageLayout to BlankPageNote--><g id="link_PageLayout_BlankPageNote"><path d="M1099.1395,163.3299 C1142.8895,213.7299 1216.25,298.2469 1259.83,348.4669 " fill="none" id="PageLayout-backto-BlankPageNote" style="stroke:#181818;stroke-width:1;stroke-dasharray:7.0,7.0;"/><polygon fill="none" points="1087.34,149.7369,1094.6085,167.2631,1103.6705,159.3968,1087.34,149.7369" style="stroke:#181818;stroke-width:1;"/></g><!--reverse link NoteComponent to Subject--><g id="link_NoteComponent_Subject"><path d="M559.2534,191.9836 C557.3634,206.8736 557.91,205.1269 556.96,220.0769 C555.15,248.5669 554.96,279.9769 555.37,307.3369 " fill="none" id="NoteComponent-backto-Subject" style="stroke:#181818;stroke-width:1;stroke-dasharray:7.0,7.0;"/><polygon fill="none" points="561.52,174.1269,553.3012,191.2281,565.2057,192.7391,561.52,174.1269" style="stroke:#181818;stroke-width:1;"/></g><!--reverse link Subject to NoteComponent--><g id="link_Subject_NoteComponent"><path codeLine="162" d="M561.8185,295.6094 C563.7485,253.4294 565.61,212.9769 567.4,173.9769 " fill="none" id="Subject-backto-NoteComponent" style="stroke:#181818;stroke-width:1;"/><polygon fill="none" points="561.27,307.5969,565.5401,301.786,561.8185,295.6094,557.5484,301.4203,561.27,307.5969" style="stroke:#181818;stroke-width:1;"/><text fill="#000000" font-family="sans-serif" font-size="13" lengthAdjust="spacing" textLength="55.0278" x="566.96" y="233.1438">contains</text></g><!--reverse link NoteFactory to GridNoteFactory--><g id="link_NoteFactory_GridNoteFactory"><path d="M1655.148,164.2467 C1618.148,214.6467 1556.77,298.2469 1519.9,348.4669 " fill="none" id="NoteFactory-backto-GridNoteFactory" style="stroke:#181818;stroke-width:1;"/><polygon fill="none" points="1665.8,149.7369,1650.3114,160.696,1659.9846,167.7973,1665.8,149.7369" style="stroke:#181818;stroke-width:1;"/></g><!--reverse link NoteFactory to LinedNoteFactory--><g id="link_NoteFactory_LinedNoteFactory"><path d="M1688.96,167.7369 C1688.96,218.1369 1688.96,298.2469 1688.96,348.4669 " fill="none" id="NoteFactory-backto-LinedNoteFactory" style="stroke:#181818;stroke-width:1;"/><polygon fill="none" points="1688.96,149.7369,1682.96,167.7369,1694.96,167.7369,1688.96,149.7369" style="stroke:#181818;stroke-width:1;"/></g><!--reverse link NoteFactory to BlankPageNoteFactory--><g id="link_NoteFactory_BlankPageNoteFactory"><path d="M1725.4077,163.798 C1765.6877,214.198 1832.85,298.2469 1872.98,348.4669 " fill="none" id="NoteFactory-backto-BlankPageNoteFactory" style="stroke:#181818;stroke-width:1;"/><polygon fill="none" points="1714.17,149.7369,1720.7207,167.5439,1730.0947,160.0521,1714.17,149.7369" style="stroke:#181818;stroke-width:1;"/></g><!--reverse link NoteObserver to TagSystem--><g id="link_NoteObserver_TagSystem"><path d="M187.1021,824.265 C172.5121,842.815 165.23,852.0669 150.64,870.6069 " fill="none" id="NoteObserver-backto-TagSystem" style="stroke:#181818;stroke-width:1;stroke-dasharray:7.0,7.0;"/><polygon fill="none" points="198.23,810.1169,182.3861,820.5558,191.8182,827.9743,198.23,810.1169" style="stroke:#181818;stroke-width:1;"/></g><!--reverse link NoteObserver to SyncModule--><g id="link_NoteObserver_SyncModule"><path d="M259.1428,824.2058 C273.8928,842.7558 281.28,852.0669 296.02,870.6069 " fill="none" id="NoteObserver-backto-SyncModule" style="stroke:#181818;stroke-width:1;stroke-dasharray:7.0,7.0;"/><polygon fill="none" points="247.94,810.1169,254.4465,827.9401,263.8391,820.4715,247.94,810.1169" style="stroke:#181818;stroke-width:1;"/></g><!--reverse link Drawing to BasicDrawing--><g id="link_Drawing_BasicDrawing"><path d="M1676.96,678.2669 C1676.96,703.2569 1676.96,720.0969 1676.96,745.1369 " fill="none" id="Drawing-backto-BasicDrawing" style="stroke:#181818;stroke-width:1;stroke-dasharray:7.0,7.0;"/><polygon fill="none" points="1676.96,660.2669,1670.96,678.2669,1682.96,678.2669,1676.96,660.2669" style="stroke:#181818;stroke-width:1;"/></g><!--reverse link Shape to Circle--><g id="link_Shape_Circle"><path d="M2543.9834,157.0041 C2487.6234,181.7941 2431.28,213.8169 2381.96,267.0769 C2357.88,293.0869 2342.9,331.9969 2335.24,356.6069 " fill="none" id="Shape-backto-Circle" style="stroke:#181818;stroke-width:1;"/><polygon fill="none" points="2560.46,149.7569,2541.5677,151.5119,2546.3992,162.4963,2560.46,149.7569" style="stroke:#181818;stroke-width:1;"/></g><!--reverse link Shape to Rectangle--><g id="link_Shape_Rectangle"><path d="M2603.5296,163.1064 C2577.4496,192.5264 2550.34,224.7069 2519.96,267.0769 C2498.71,296.7169 2477.24,332.9869 2464.02,356.2169 " fill="none" id="Shape-backto-Rectangle" style="stroke:#181818;stroke-width:1;"/><polygon fill="none" points="2615.47,149.6369,2599.0398,159.1263,2608.0195,167.0865,2615.47,149.6369" style="stroke:#181818;stroke-width:1;"/></g><!--reverse link Shape to Square--><g id="link_Shape_Square"><path d="M2631.595,167.1896 C2618.155,220.4396 2595.68,309.5069 2583.81,356.5069 " fill="none" id="Shape-backto-Square" style="stroke:#181818;stroke-width:1;"/><polygon fill="none" points="2636,149.7369,2625.7775,165.7212,2637.4126,168.6579,2636,149.7369" style="stroke:#181818;stroke-width:1;"/></g><!--reverse link Shape to CurvedLine--><g id="link_Shape_CurvedLine"><path d="M2656.1402,167.2058 C2669.3702,220.4558 2691.51,309.5069 2703.19,356.5069 " fill="none" id="Shape-backto-CurvedLine" style="stroke:#181818;stroke-width:1;"/><polygon fill="none" points="2651.8,149.7369,2650.3172,168.6525,2661.9631,165.7591,2651.8,149.7369" style="stroke:#181818;stroke-width:1;"/></g><!--reverse link Shape to DashedLine--><g id="link_Shape_DashedLine"><path d="M2688.6176,162.4549 C2717.6476,191.7149 2748.25,224.3169 2781.96,267.0769 C2805.22,296.6069 2828.71,333.2169 2843.04,356.5269 " fill="none" id="Shape-backto-DashedLine" style="stroke:#181818;stroke-width:1;"/><polygon fill="none" points="2675.94,149.6769,2684.3583,166.6808,2692.8769,158.2291,2675.94,149.6769" style="stroke:#181818;stroke-width:1;"/></g><!--reverse link Shape to Arrow--><g id="link_Shape_Arrow"><path d="M2756.7585,156.3113 C2818.0185,180.4313 2878.85,212.3469 2931.96,267.0769 C2956.72,292.6069 2971.92,331.6469 2979.64,356.4169 " fill="none" id="Shape-backto-Arrow" style="stroke:#181818;stroke-width:1;"/><polygon fill="none" points="2740.01,149.7169,2754.5604,161.8941,2758.9567,150.7285,2740.01,149.7169" style="stroke:#181818;stroke-width:1;"/></g><!--reverse link Pen to Highlighter--><g id="link_Pen_Highlighter"><path d="M2087.7915,494.4465 C2069.1715,532.5165 2056.73,557.9169 2042.31,587.3969 " fill="none" id="Pen-backto-Highlighter" style="stroke:#181818;stroke-width:1;"/><polygon fill="none" points="2095.7,478.2769,2082.4016,491.8103,2093.1813,497.0826,2095.7,478.2769" style="stroke:#181818;stroke-width:1;"/></g><!--reverse link Pen to Pencil--><g id="link_Pen_Pencil"><path d="M2197.677,494.4716 C2216.147,532.5416 2228.47,557.9169 2242.77,587.3969 " fill="none" id="Pen-backto-Pencil" style="stroke:#181818;stroke-width:1;"/><polygon fill="none" points="2189.82,478.2769,2192.2788,497.0906,2203.0752,491.8526,2189.82,478.2769" style="stroke:#181818;stroke-width:1;"/></g><!--reverse link Pen to BallpointPen--><g id="link_Pen_BallpointPen"><path d="M2268.6231,489.314 C2275.8331,494.854 2268.8,489.2669 2275.96,494.3469 C2324.11,528.5469 2381.5,562.2669 2426.28,587.1469 " fill="none" id="Pen-backto-BallpointPen" style="stroke:#181818;stroke-width:1;"/><polygon fill="none" points="2254.35,478.3469,2264.9674,494.0717,2272.2788,484.5563,2254.35,478.3469" style="stroke:#181818;stroke-width:1;"/></g><!--link Note to NoteObservable--><g id="link_Note_NoteObservable"><path codeLine="158" d="M222.96,494.6369 C222.96,521.1569 222.96,530.2869 222.96,553.0269 " fill="none" id="Note-to-NoteObservable" style="stroke:#181818;stroke-width:1;stroke-dasharray:7.0,7.0;"/><polygon fill="none" points="222.96,571.0269,228.96,553.0269,216.96,553.0269,222.96,571.0269" style="stroke:#181818;stroke-width:1;"/></g><!--reverse link NoteObservable to NoteObserver--><g id="link_NoteObservable_NoteObserver"><path codeLine="159" d="M222.96,696.7969 C222.96,717.2269 222.96,727.6069 222.96,745.1669 " fill="none" id="NoteObservable-backto-NoteObserver" style="stroke:#181818;stroke-width:1;"/><polygon fill="none" points="222.96,684.7969,218.96,690.7969,222.96,696.7969,226.96,690.7969,222.96,684.7969" style="stroke:#181818;stroke-width:1;"/></g><!--reverse link User to Note--><g id="link_User_Note"><path codeLine="164" d="M206.6778,202.2966 C208.8578,226.0266 210.23,241.0669 212.62,267.0769 " fill="none" id="User-backto-Note" style="stroke:#181818;stroke-width:1;"/><polygon fill="none" points="205.58,190.3469,202.1457,196.6876,206.6778,202.2966,210.1121,195.9558,205.58,190.3469" style="stroke:#181818;stroke-width:1;"/><text fill="#000000" font-family="sans-serif" font-size="13" lengthAdjust="spacing" textLength="100.0518" x="210.96" y="233.1438">manages notes</text><text fill="#000000" font-family="sans-serif" font-size="13" lengthAdjust="spacing" textLength="8.271" x="197.8428" y="210.1079">1</text><text fill="#000000" font-family="sans-serif" font-size="13" lengthAdjust="spacing" textLength="6.5" x="205.7403" y="256.0096">*</text></g><!--reverse link Pen to Drawing--><g id="link_Pen_Drawing"><path codeLine="166" d="M2025.4428,485.3144 C2017.4328,491.0144 2019.09,489.4469 2010.96,494.3469 C1938.68,537.8869 1849.55,572.4269 1781.54,595.3269 " fill="none" id="Pen-backto-Drawing" style="stroke:#181818;stroke-width:1;"/><polygon fill="none" points="2035.22,478.3569,2028.0122,478.5766,2025.4428,485.3144,2032.6506,485.0947,2035.22,478.3569" style="stroke:#181818;stroke-width:1;"/><text fill="#000000" font-family="sans-serif" font-size="13" lengthAdjust="spacing" textLength="29.7832" x="1951.96" y="537.4138">uses</text></g><!--reverse link DrawingTool to Pen--><g id="link_DrawingTool_Pen"><path codeLine="170" d="M2142.96,177.8569 C2142.96,210.5569 2142.96,243.1069 2142.96,283.0869 " fill="none" id="DrawingTool-backto-Pen" style="stroke:#181818;stroke-width:1;"/><polygon fill="none" points="2142.96,165.8569,2138.96,171.8569,2142.96,177.8569,2146.96,171.8569,2142.96,165.8569" style="stroke:#181818;stroke-width:1;"/><text fill="#000000" font-family="sans-serif" font-size="13" lengthAdjust="spacing" textLength="29.7832" x="2143.96" y="233.1438">uses</text></g><!--SRC=[pLVRJkCm47tFLrYyD5refNsjM2Gesel4BeYM3t1Zj_7YsbxR1IhWttSSsucJbdiVg0HjF3DdnZF7uubbbbDqhgX0VwIbw5YfBEkXRyz-G67CiJ7K82m8-YKirNDSKFEoPU7iq9MX6jrd23u3j887WPTqX2PMCx48omeKRwKchULzjA3sAXZa_OxC938lgC7xZSf508ugqL5KuNB1HDwDwc0Z8F0-av9JBBB7B6Cn2LKUntAffA32Xbtk8qn8tfOKyLTqhEbItj2Nj201uv9naeD7n0IXTn18ooOe4cOKn-kyxyBheUEPiHeNrjVPry6MsA9IScB03sm045r15LvG1APoPJCSpRn5PSoMYjCbQ9kjcnqWwrZLgMTmi57b1JshF8tGHVtx4-IifilOnntP4hQH8WU5BMniTfGtFqDc4uH4hTzAGrMunB8XMLKvGkTCK5T6MA1G50p5cKkDXAkIIwr9U9dWrAHKYg-3vwgopZ3m1RPLQ6fJEuFoQN1Z-k4edq44fCkADxdoE3yqsmNC2SVYsjbz2Ak79glPNrgptkMq8fLXe3QZ9RvXKWUNKVN5Kx6boHMEbPgA4UJHsCEMtT7dw1nR6i1tU9HwNISIU0AKS98y8FeaUZr6GmATbZj2XCtdLBiGAvxQjGADMsRBjF6O3Y-YJte7Xusy9OuEJpyAr6BO-y7QzyNv3AwRc_fIt4ShHS0eTmdoDWd7ftWnMHiuy5tAlGbbiXR5RqbMd7u8fZ70Cu2AN9S1moJCZhW9iUDItl8RZTlqVfqk1CdcwoWsdiDDiayrldKSZ5iZy3mfiQAvSV-RsxwGNEhcqPQik8PU2_kPSubjsdAmOKN4JLAvKrV9_LrX-DFOFPnUb3hCOnJ4Vn-W-Xu3fmVUG-CoTZz52pPd1QeYZKTnp7G19OvS3yuUW_GIUY0MYwSL9lzMM3yf7Q-WNiITqgSqJh4fdzSurbhURWgxMRg0OVU-dagItCVffLE0i1moE8g5JKS40CdJn2RpmpIYvHkvJaO81z3V77KRutuQZA-jIqKzgJJi2d5KfKje-fCjIWv_S1Bg53MPU0yYM1UCxmZi17Ek91nK1xCRo52dAGpfTRsLksi1DfdHgCYT7v14P0NDGkfbiD-4VyNxqIM5AOb9OKgcNl5QL8qVm-73KQUVPftsAWU3LelEUgrcUFWm73RNGs-Rj6dxlInEBX6rcHr6rPoBcJ1PLhsixNtTgzJslkpvTu0HMcBX9ipg4WSrbqEd4HlEoBrxmTRT-k432182zf9bpw9q9QL2BqkhABr-mFuF]--></g></svg>